<svg id="btn_close" xmlns="http://www.w3.org/2000/svg" width="30" height="30" viewBox="0 0 30 30">
  <g id="invisible_box" data-name="invisible box">
    <rect id="사각형_293" data-name="사각형 293" width="30" height="30" fill="none"/>
  </g>
  <g id="icons_Q2" data-name="icons Q2" transform="translate(6.251 6.225)">
    <path id="패스_53" data-name="패스 53" d="M20.5,18.735l6.625-6.562a1.312,1.312,0,0,0,.125-1.687,1.187,1.187,0,0,0-1.875-.125L18.75,16.985,12.125,10.36a1.188,1.188,0,0,0-1.875.125,1.313,1.313,0,0,0,.125,1.688L17,18.735,10.375,25.3a1.312,1.312,0,0,0-.125,1.688,1.187,1.187,0,0,0,1.875.125l6.625-6.625,6.625,6.625a1.188,1.188,0,0,0,1.875-.125,1.312,1.312,0,0,0-.125-1.687Z" transform="translate(-10.001 -9.959)" fill="#fff"/>
  </g>
</svg>
