<svg width="11" height="13" viewBox="0 0 11 13" fill="none" xmlns="http://www.w3.org/2000/svg">
<path d="M2.93798 4.875H8.06215C8.15279 4.87545 8.24129 4.90765 8.31645 4.96754C8.39161 5.02743 8.45005 5.11231 8.48439 5.21145C8.51873 5.3106 8.52743 5.41955 8.50938 5.52453C8.49133 5.62951 8.44734 5.72581 8.38298 5.80125L5.82548 8.82374C5.78287 8.87451 5.73218 8.91481 5.67633 8.94231C5.62047 8.96981 5.56057 8.98397 5.50006 8.98397C5.43956 8.98397 5.37965 8.96981 5.3238 8.94231C5.26795 8.91481 5.21725 8.87451 5.17465 8.82374L2.61715 5.80125C2.55279 5.72581 2.5088 5.62951 2.49075 5.52453C2.4727 5.41955 2.48139 5.3106 2.51573 5.21145C2.55007 5.11231 2.60852 5.02743 2.68368 4.96754C2.75884 4.90765 2.84733 4.87545 2.93798 4.875V4.875Z" fill="#8F959E"/>
</svg>
