<svg xmlns="http://www.w3.org/2000/svg" xmlns:xlink="http://www.w3.org/1999/xlink" width="263" height="80" viewBox="0 0 263 80">
  <defs>
    <clipPath id="clip-path">
      <rect id="사각형_8" data-name="사각형 8" width="100" height="30.049" fill="#f1f1ff"/>
    </clipPath>
  </defs>
  <g id="그룹_677" data-name="그룹 677" transform="translate(0)">
    <g id="그룹_545" data-name="그룹 545">
      <path id="패스_225" data-name="패스 225" d="M0,0H200V80H0Z" transform="translate(0)" fill="#302b3a"/>
      <g id="그룹_3" data-name="그룹 3" transform="translate(30 27)">
        <g id="그룹_1" data-name="그룹 1" transform="translate(0 0)" clip-path="url(#clip-path)">
          <path id="패스_2" data-name="패스 2" d="M20.116,37.007H2.245A2.246,2.246,0,0,1,0,34.762V33.391L12.8,14.242H5.828a4.9,4.9,0,0,1-4.9-4.905V9.129H20.081v3.519L7.558,31.914H20.116Z" transform="translate(0 -6.958)" fill="#f1f1ff"/>
          <path id="패스_3" data-name="패스 3" d="M341.255,8.109v28.11h5.41s0-23.836,0-24.1c0-4.006-5.406-4.006-5.406-4.006" transform="translate(-260.107 -6.181)" fill="#f1f1ff"/>
          <path id="패스_4" data-name="패스 4" d="M366.571,48.382l7.274-9.324H367.8L360.7,48.1,369,59.809h5.926Z" transform="translate(-274.926 -29.771)" fill="#f1f1ff"/>
          <path id="패스_5" data-name="패스 5" d="M225.552,3.373A3.373,3.373,0,1,1,222.179,0a3.374,3.374,0,0,1,3.373,3.373" transform="translate(-166.776 0)" fill="#f1f1ff"/>
          <path id="패스_6" data-name="패스 6" d="M221.464,37.872V58.9h5.406V40.948c0-1.028-1.092-3.076-5.406-3.076" transform="translate(-168.802 -28.866)" fill="#f1f1ff"/>
          <path id="패스_7" data-name="패스 7" d="M263.937,40.04c-.506-1.012-1.928-2.17-5.172-2.17V58.9h5.406V44.264a6.053,6.053,0,0,1,3.744-1.831c1.415,0,1.819.689,1.819,3.029V58.9h5.328V43.8a8.3,8.3,0,0,0-.405-2.946,5.135,5.135,0,0,0-4.962-2.988,8.528,8.528,0,0,0-3.714.891c-.059.032-1.042.578-2.043,1.279" transform="translate(-197.233 -28.865)" fill="#f1f1ff"/>
          <path id="패스_8" data-name="패스 8" d="M154.013,36.253h10.57V31.325H157.67c-1.485,0-1.424-1.613-1.424-1.613V11.824c0-3.314-4.866-3.712-5.531-3.682v23.9s-.117,4.213,3.3,4.213" transform="translate(-114.876 -6.204)" fill="#f1f1ff"/>
          <path id="패스_9" data-name="패스 9" d="M100.552,3.417A3.373,3.373,0,1,1,97.179.044a3.374,3.374,0,0,1,3.373,3.373" transform="translate(-71.5 -0.034)" fill="#f1f1ff"/>
          <path id="패스_10" data-name="패스 10" d="M96.464,37.916V58.949h5.406V40.992c0-1.028-1.092-3.076-5.406-3.076" transform="translate(-73.526 -28.9)" fill="#f1f1ff"/>
        </g>
      </g>
      <text id="_2." data-name="2." transform="translate(128 44)" fill="#fff" font-size="24" font-family="Roboto-Regular, Roboto"><tspan x="0" y="0">2.</tspan></text>
      <text id="_0" data-name="0" transform="translate(146 44)" fill="#fff" font-size="24" font-family="Roboto-Regular, Roboto"><tspan x="0" y="0">0</tspan></text>
    </g>
    <text id="ADMIN" transform="translate(172 44)" fill="#fff" font-size="24" font-family="NotoSansKR-Thin, Noto Sans KR" font-weight="200" letter-spacing="0.2em"><tspan x="0" y="0">ADMIN</tspan></text>
  </g>
</svg>
